<?xml version="1.0" encoding="UTF-8" standalone="no"?>
<!DOCTYPE svg PUBLIC "-//W3C//DTD SVG 1.1//EN" "http://www.w3.org/Graphics/SVG/1.1/DTD/svg11.dtd">
<svg width="100%" height="100%" viewBox="0 0 2300 591" version="1.1" xmlns="http://www.w3.org/2000/svg" xmlns:xlink="http://www.w3.org/1999/xlink" xml:space="preserve" xmlns:serif="http://www.serif.com/" style="fill-rule:evenodd;clip-rule:evenodd;stroke-linejoin:round;stroke-miterlimit:2;">
    <g transform="matrix(0.726707,0,0,0.726707,222.286,88.3509)">
        <g transform="matrix(0.646957,0,0,0.646957,0.219654,129.655)">
            <ellipse cx="256" cy="59.666" rx="59.402" ry="59.666" style="fill:rgb(54,77,224);"/>
            <g transform="matrix(1.33186,0,0,1.33186,-137.267,-137.266)">
                <path d="M207.918,273.942L210.799,253.784C214.915,226.744 238.849,204.8 264.162,204.8L268.043,204.8C276.534,208.904 285.845,211.03 295.276,211.021C304.707,211.031 314.018,208.904 322.509,204.8L326.394,204.8C351.705,204.8 375.638,226.744 379.743,253.716L382.633,273.942L207.918,273.942ZM388.729,316.61L390.933,332.038C391.339,334.868 390.023,337.684 387.592,339.189L355.531,359.05L340.581,463.883C338.856,477.081 327.646,487.488 315.072,487.488L275.479,487.488C262.906,487.488 251.696,477.081 249.959,463.801L235.019,359.05L202.959,339.191C200.528,337.685 199.213,334.87 199.618,332.039L201.822,316.61L388.729,316.61Z" style="fill:rgb(54,77,224);fill-rule:nonzero;"/>
            </g>
        </g>
        <g transform="matrix(0.861657,0,0,0.861657,-89.3807,48.0388)">
            <g transform="matrix(1,0,0,1,40.198,30.9318)">
                <path d="M85.333,234.667L168.643,234.667L162.547,277.333L85.333,277.333C73.63,277.333 64,267.703 64,256C64,244.297 73.63,234.667 85.333,234.667ZM448,256C448,267.703 438.37,277.333 426.667,277.333L349.453,277.333L343.359,234.667L426.667,234.667C438.37,234.667 448,244.297 448,256Z" style="fill:rgb(54,77,224);fill-rule:nonzero;"/>
            </g>
            <g transform="matrix(1.11782,0,0,1.11782,-144.025,-43.1596)">
                <path d="M202.975,177.655C194.226,177.655 187.025,170.456 187.025,161.706L187.025,142.621C187.025,112.932 211.456,88.502 241.144,88.502L260.229,88.502C268.979,88.502 276.178,95.702 276.178,104.452C276.178,113.201 268.979,120.401 260.229,120.401L241.144,120.401C228.954,120.401 218.924,130.431 218.924,142.621L218.924,161.706C218.924,170.456 211.725,177.655 202.975,177.655ZM584.67,177.655C575.92,177.655 568.721,170.456 568.721,161.706L568.721,142.621C568.721,130.431 558.69,120.401 546.501,120.401L527.415,120.401C518.666,120.401 511.467,113.201 511.467,104.452C511.467,95.702 518.666,88.502 527.415,88.502L546.501,88.502C576.189,88.502 600.62,112.932 600.62,142.621L600.62,161.706C600.62,170.456 593.419,177.655 584.67,177.655ZM260.229,502.096L241.144,502.096C211.456,502.096 187.025,477.666 187.025,447.978L187.025,428.892C187.025,420.143 194.226,412.943 202.975,412.943C211.725,412.943 218.924,420.143 218.924,428.892L218.924,447.978C218.924,460.167 228.954,470.198 241.144,470.198L260.229,470.198C268.979,470.198 276.178,477.397 276.178,486.146C276.178,494.896 268.979,502.096 260.229,502.096ZM546.501,502.096L527.415,502.096C518.666,502.096 511.467,494.896 511.467,486.146C511.467,477.397 518.666,470.198 527.415,470.198L546.501,470.198C558.69,470.198 568.721,460.167 568.721,447.978L568.721,428.892C568.721,420.143 575.92,412.943 584.67,412.943C593.419,412.943 600.62,420.143 600.62,428.892L600.62,447.978C600.62,477.666 576.189,502.096 546.501,502.096Z" style="fill:rgb(54,77,224);fill-rule:nonzero;"/>
            </g>
        </g>
    </g>
    <g transform="matrix(0.699948,0,0,0.699948,67.1482,96.2357)">
        <g>
            <path d="M4480.94,-405.775L4480.94,1047.24L-1200.52,1047.24L-1200.52,-405.775L4480.94,-405.775ZM1592.72,342.207C1595.55,366.23 1604.24,384.517 1618.79,397.065C1633.34,409.614 1654.19,415.889 1681.34,415.889C1699.99,415.889 1715.57,413.276 1728.07,408.052C1740.57,402.827 1750.24,394.844 1757.07,384.101C1763.91,373.359 1767.33,361.836 1767.33,349.531C1767.33,335.957 1764.47,324.556 1758.76,315.327C1753.04,306.099 1745.13,298.823 1735.03,293.501C1724.92,288.179 1709.32,283.027 1688.23,278.047C1667.13,273.066 1653.85,268.281 1648.38,263.691C1644.08,260.078 1641.94,255.732 1641.94,250.654C1641.94,245.088 1644.23,240.644 1648.82,237.324C1655.95,232.148 1665.81,229.56 1678.41,229.56C1690.62,229.56 1699.77,231.977 1705.88,236.811C1711.98,241.645 1715.96,249.58 1717.82,260.615L1761.17,258.711C1760.49,238.984 1753.34,223.213 1739.71,211.396C1726.09,199.58 1705.8,193.672 1678.85,193.672C1662.35,193.672 1648.26,196.162 1636.59,201.143C1624.92,206.123 1615.98,213.374 1609.78,222.895C1603.58,232.417 1600.48,242.646 1600.48,253.584C1600.48,270.576 1607.07,284.98 1620.26,296.797C1629.63,305.195 1645.94,312.275 1669.18,318.037C1687.25,322.529 1698.82,325.654 1703.9,327.412C1711.32,330.049 1716.52,333.149 1719.5,336.714C1722.48,340.278 1723.97,344.6 1723.97,349.678C1723.97,357.588 1720.43,364.497 1713.35,370.405C1706.27,376.313 1695.74,379.268 1681.78,379.268C1668.6,379.268 1658.12,375.947 1650.36,369.307C1642.6,362.666 1637.44,352.266 1634.9,338.105L1592.72,342.207ZM944.998,197.334L944.998,336.055C944.998,353.437 942.996,364.888 938.993,370.405C934.989,375.923 928.153,378.682 918.485,378.682C908.914,378.682 901.786,374.824 897.098,367.109C893.973,362.031 892.166,353.34 891.678,341.035L850.809,345.723C850.907,368.672 856.668,386.079 868.094,397.944C879.52,409.809 895.828,415.742 917.02,415.742C935.086,415.742 949.637,411.958 960.672,404.39C971.707,396.821 979.325,386.787 983.524,374.287C986.649,364.717 988.211,351.045 988.211,333.271L988.211,197.334L944.998,197.334ZM2264.54,412.08L2304.82,412.08L2304.82,272.041L2391.39,412.08L2434.9,412.08L2434.9,197.334L2394.62,197.334L2394.62,340.742L2306.72,197.334L2264.54,197.334L2264.54,412.08ZM2490.19,412.08L2530.47,412.08L2530.47,272.041L2617.04,412.08L2660.55,412.08L2660.55,197.334L2620.27,197.334L2620.27,340.742L2532.38,197.334L2490.19,197.334L2490.19,412.08ZM2232.1,412.08L2146.11,197.334L2100.26,197.334L2016.62,412.08L2062.62,412.08L2080.34,363.301L2166.18,363.301L2184.93,412.08L2232.1,412.08ZM2152.27,327.119L2093.67,327.119L2122.68,247.432L2152.27,327.119ZM2715.4,412.08L2878.73,412.08L2878.73,375.898L2758.76,375.898L2758.76,317.451L2866.57,317.451L2866.57,281.269L2758.76,281.269L2758.76,233.662L2874.63,233.662L2874.63,197.334L2715.4,197.334L2715.4,412.08ZM2924.64,412.08L2968,412.08L2968,322.432L2976.79,322.432C2986.75,322.432 2994.03,323.237 2998.62,324.849C3003.21,326.46 3007.55,329.438 3011.66,333.784C3015.76,338.13 3023.38,348.652 3034.51,365.351L3065.86,412.08L3117.71,412.08L3091.49,370.185C3081.14,353.486 3072.91,341.865 3066.81,335.322C3060.7,328.779 3052.97,322.773 3043.59,317.305C3062.44,314.57 3076.6,307.954 3086.07,297.456C3095.54,286.958 3100.28,273.652 3100.28,257.539C3100.28,244.844 3097.15,233.564 3090.9,223.701C3084.65,213.838 3076.33,206.977 3065.93,203.12C3055.53,199.263 3038.85,197.334 3015.9,197.334L2924.64,197.334L2924.64,412.08ZM2968,288.154L2968,233.662L3001.84,233.662C3019.42,233.662 3029.97,233.906 3033.48,234.394C3040.51,235.566 3045.96,238.374 3049.82,242.817C3053.67,247.261 3055.6,253.096 3055.6,260.322C3055.6,266.768 3054.14,272.139 3051.21,276.435C3048.28,280.732 3044.22,283.76 3039.05,285.518C3033.87,287.275 3020.89,288.154 3000.08,288.154L2968,288.154ZM1950.2,333.125C1946.59,348.848 1940.63,360.371 1932.33,367.695C1924.03,375.019 1914.12,378.682 1902.6,378.682C1886.97,378.682 1874.28,372.92 1864.51,361.396C1854.75,349.873 1849.86,330.537 1849.86,303.389C1849.86,277.803 1854.82,259.297 1864.73,247.871C1874.64,236.445 1887.56,230.732 1903.48,230.732C1915,230.732 1924.79,233.955 1932.85,240.4C1940.9,246.846 1946.2,255.635 1948.74,266.768L1991.66,256.514C1986.78,239.326 1979.45,226.143 1969.69,216.963C1953.28,201.435 1931.94,193.672 1905.67,193.672C1875.59,193.672 1851.33,203.559 1832.87,223.335C1814.41,243.11 1805.18,270.869 1805.18,306.611C1805.18,340.4 1814.36,367.036 1832.72,386.518C1851.08,406.001 1874.52,415.742 1903.04,415.742C1926.08,415.742 1945.1,410.054 1960.09,398.677C1975.08,387.3 1985.8,369.893 1992.25,346.455L1950.2,333.125ZM393.823,-0C230.856,-0 98.547,132.308 98.547,295.275C98.547,458.242 230.856,590.551 393.823,590.551C556.79,590.551 689.098,458.242 689.098,295.275C689.098,132.308 556.79,-0 393.823,-0ZM1034.57,306.025C1034.57,340.205 1043.99,367.036 1062.84,386.518C1081.68,406.001 1107.08,415.742 1139.01,415.742C1170.55,415.742 1195.75,405.952 1214.59,386.372C1233.44,366.792 1242.87,339.668 1242.87,305C1242.87,270.039 1233.37,242.744 1214.38,223.115C1195.38,203.486 1170.06,193.672 1138.42,193.672C1120.94,193.672 1105.51,196.504 1092.13,202.168C1082.08,206.367 1072.82,212.812 1064.38,221.504C1055.93,230.195 1049.26,240.01 1044.38,250.947C1037.84,265.791 1034.57,284.15 1034.57,306.025ZM1079.24,304.56C1079.24,279.853 1084.71,261.372 1095.65,249.116C1106.59,236.86 1120.99,230.732 1138.86,230.732C1156.73,230.732 1171.06,236.787 1181.86,248.896C1192.65,261.006 1198.04,279.365 1198.04,303.975C1198.04,328.877 1192.5,347.554 1181.42,360.005C1170.33,372.456 1156.15,378.682 1138.86,378.682C1121.58,378.682 1107.32,372.407 1096.09,359.858C1084.86,347.309 1079.24,328.877 1079.24,304.56ZM1285.85,197.334L1285.85,412.08L1358.94,412.08C1386.58,411.885 1404.01,411.396 1411.24,410.615C1422.76,409.346 1432.46,405.952 1440.32,400.434C1448.18,394.917 1454.38,387.544 1458.92,378.315C1463.46,369.087 1465.73,359.59 1465.73,349.824C1465.73,337.422 1462.22,326.631 1455.19,317.451C1448.15,308.271 1438.1,301.777 1425.01,297.969C1434.29,293.769 1441.64,287.471 1447.06,279.072C1452.48,270.674 1455.19,261.445 1455.19,251.387C1455.19,242.109 1452.99,233.735 1448.59,226.265C1444.2,218.794 1438.71,212.812 1432.11,208.32C1425.52,203.828 1418.05,200.874 1409.7,199.458C1401.35,198.042 1388.68,197.334 1371.69,197.334L1285.85,197.334ZM1329.21,233.076L1354.11,233.076C1374.52,233.076 1386.88,233.32 1391.17,233.809C1398.4,234.687 1403.84,237.202 1407.51,241.352C1411.17,245.503 1413,250.898 1413,257.539C1413,264.473 1410.87,270.063 1406.63,274.311C1402.38,278.559 1396.54,281.123 1389.12,282.002C1385.02,282.49 1374.52,282.734 1357.63,282.734L1329.21,282.734L1329.21,233.076ZM1329.21,318.476L1364.22,318.476C1383.94,318.476 1396.76,319.502 1402.67,321.553C1408.58,323.603 1413.1,326.875 1416.22,331.367C1419.35,335.859 1420.91,341.328 1420.91,347.773C1420.91,355.391 1418.88,361.47 1414.83,366.011C1410.78,370.552 1405.53,373.408 1399.08,374.58C1394.88,375.459 1384.97,375.898 1369.35,375.898L1329.21,375.898L1329.21,318.476Z" style="fill:rgb(54,77,224);"/>
        </g>
    </g>
</svg>
