<?xml version="1.0" encoding="UTF-8" standalone="no"?>
<!DOCTYPE svg PUBLIC "-//W3C//DTD SVG 1.1//EN" "http://www.w3.org/Graphics/SVG/1.1/DTD/svg11.dtd">
<svg width="100%" height="100%" viewBox="0 0 591 591" version="1.1" xmlns="http://www.w3.org/2000/svg" xmlns:xlink="http://www.w3.org/1999/xlink" xml:space="preserve" xmlns:serif="http://www.serif.com/" style="fill-rule:evenodd;clip-rule:evenodd;stroke-linejoin:round;stroke-miterlimit:2;">
    <rect x="-1.924" y="-2.182" width="595.07" height="595.095" style="fill:none;"/>
    <g transform="matrix(0.994331,0,0,0.994331,-17.1168,-25.0851)">
        <circle cx="314.198" cy="322.187" r="296.959" style="fill:rgb(229,230,253);"/>
    </g>
    <g transform="matrix(0.750829,0,0,0.750829,103.064,103.063)">
        <ellipse cx="256" cy="59.666" rx="59.402" ry="59.666" style="fill:white;fill-opacity:0;"/>
        <path d="M383.402,304.962L368.499,200.649C363.03,164.726 331.155,135.499 297.444,135.499L292.271,135.499C280.962,140.965 268.56,143.797 256,143.784C243.44,143.797 231.038,140.964 219.729,135.499L214.561,135.499C180.846,135.499 148.97,164.726 143.488,200.738L128.596,304.964C128.057,308.734 129.809,312.483 133.046,314.489L175.745,340.939L195.644,480.453C197.958,498.14 212.887,512 229.633,512L282.365,512C299.111,512 314.042,498.14 316.34,480.561L336.251,340.939L378.952,314.487C382.19,312.482 383.942,308.732 383.402,304.962Z" style="fill:white;fill-opacity:0;fill-rule:nonzero;"/>
    </g>
    <g transform="matrix(1.03823,0,0,1.03823,-11.2649,-11.2648)">
        <g transform="matrix(0.646957,0,0,0.646957,129.655,129.655)">
            <ellipse cx="256" cy="59.666" rx="59.402" ry="59.666" style="fill:rgb(60,79,225);"/>
            <g transform="matrix(1.33186,0,0,1.33186,-137.267,-137.266)">
                <path d="M207.918,273.942L210.799,253.784C214.915,226.744 238.849,204.8 264.162,204.8L268.043,204.8C276.534,208.904 285.845,211.03 295.276,211.021C304.707,211.031 314.018,208.904 322.509,204.8L326.394,204.8C351.705,204.8 375.638,226.744 379.743,253.716L382.633,273.942L207.918,273.942ZM388.729,316.61L390.933,332.038C391.339,334.868 390.023,337.684 387.592,339.189L355.531,359.05L340.581,463.883C338.856,477.081 327.646,487.488 315.072,487.488L275.479,487.488C262.906,487.488 251.696,477.081 249.959,463.801L235.019,359.05L202.959,339.191C200.528,337.685 199.213,334.87 199.618,332.039L201.822,316.61L388.729,316.61Z" style="fill:rgb(60,79,225);fill-rule:nonzero;"/>
            </g>
        </g>
        <g transform="matrix(0.861657,0,0,0.861657,40.0546,48.0388)">
            <g transform="matrix(1,0,0,1,40.198,30.9318)">
                <path d="M85.333,234.667L168.643,234.667L162.547,277.333L85.333,277.333C73.63,277.333 64,267.703 64,256C64,244.297 73.63,234.667 85.333,234.667ZM448,256C448,267.703 438.37,277.333 426.667,277.333L349.453,277.333L343.359,234.667L426.667,234.667C438.37,234.667 448,244.297 448,256Z" style="fill:rgb(60,79,225);fill-rule:nonzero;"/>
            </g>
            <g transform="matrix(1,0,0,1,40.198,30.9318)">
                <path d="M42.667,128C30.964,128 21.333,118.37 21.333,106.667L21.333,85.333C21.333,50.224 50.224,21.333 85.333,21.333L106.667,21.333C118.37,21.333 128,30.964 128,42.667C128,54.37 118.37,64 106.667,64L85.333,64C73.63,64 64,73.63 64,85.333L64,106.667C64,118.37 54.37,128 42.667,128ZM469.333,128C457.63,128 448,118.37 448,106.667L448,85.333C448,73.63 438.37,64 426.667,64L405.333,64C393.63,64 384,54.37 384,42.667C384,30.964 393.63,21.333 405.333,21.333L426.667,21.333C461.776,21.333 490.667,50.224 490.667,85.333L490.667,106.667C490.667,118.37 481.036,128 469.333,128ZM106.667,490.667L85.333,490.667C50.224,490.667 21.333,461.776 21.333,426.667L21.333,405.333C21.333,393.63 30.964,384 42.667,384C54.37,384 64,393.63 64,405.333L64,426.667C64,438.37 73.63,448 85.333,448L106.667,448C118.37,448 128,457.63 128,469.333C128,481.036 118.37,490.667 106.667,490.667ZM426.667,490.667L405.333,490.667C393.63,490.667 384,481.036 384,469.333C384,457.63 393.63,448 405.333,448L426.667,448C438.37,448 448,438.37 448,426.667L448,405.333C448,393.63 457.63,384 469.333,384C481.036,384 490.667,393.63 490.667,405.333L490.667,426.667C490.667,461.776 461.776,490.667 426.667,490.667Z" style="fill:rgb(60,79,225);fill-rule:nonzero;stroke:rgb(229,230,253);stroke-width:7.01px;"/>
            </g>
        </g>
    </g>
</svg>
