<?xml version="1.0" encoding="UTF-8" standalone="no"?>
<!DOCTYPE svg PUBLIC "-//W3C//DTD SVG 1.1//EN" "http://www.w3.org/Graphics/SVG/1.1/DTD/svg11.dtd">
<svg width="100%" height="100%" viewBox="0 0 591 591" version="1.1" xmlns="http://www.w3.org/2000/svg" xmlns:xlink="http://www.w3.org/1999/xlink" xml:space="preserve" xmlns:serif="http://www.serif.com/" style="fill-rule:evenodd;clip-rule:evenodd;stroke-linejoin:round;stroke-miterlimit:2;">
    <path d="M593.146,-2.182L593.146,592.913L-1.924,592.913L-1.924,-2.182L593.146,-2.182ZM295.3,-0C132.333,-0 0.024,132.308 0.024,295.275C0.024,458.242 132.333,590.551 295.3,590.551C458.267,590.551 590.576,458.242 590.576,295.275C590.576,132.308 458.267,-0 295.3,-0Z" style="fill:rgb(60,79,225);"/>
    <g transform="matrix(0.750829,0,0,0.750829,103.064,103.063)">
        <ellipse cx="256" cy="59.666" rx="59.402" ry="59.666" style="fill:white;fill-opacity:0;"/>
        <path d="M383.402,304.962L368.499,200.649C363.03,164.726 331.155,135.499 297.444,135.499L292.271,135.499C280.962,140.965 268.56,143.797 256,143.784C243.44,143.797 231.038,140.964 219.729,135.499L214.561,135.499C180.846,135.499 148.97,164.726 143.488,200.738L128.596,304.964C128.057,308.734 129.809,312.483 133.046,314.489L175.745,340.939L195.644,480.453C197.958,498.14 212.887,512 229.633,512L282.365,512C299.111,512 314.042,498.14 316.34,480.561L336.251,340.939L378.952,314.487C382.19,312.482 383.942,308.732 383.402,304.962Z" style="fill:white;fill-opacity:0;fill-rule:nonzero;"/>
    </g>
    <g transform="matrix(1.03823,0,0,1.03823,-11.2649,-11.2648)">
        <g transform="matrix(0.646957,0,0,0.646957,129.655,129.655)">
            <ellipse cx="256" cy="59.666" rx="59.402" ry="59.666" style="fill:rgb(60,79,225);"/>
            <g transform="matrix(1.33186,0,0,1.33186,-137.267,-137.266)">
                <path d="M207.918,273.942L210.799,253.784C214.915,226.744 238.849,204.8 264.162,204.8L268.043,204.8C276.534,208.904 285.845,211.03 295.276,211.021C304.707,211.031 314.018,208.904 322.509,204.8L326.394,204.8C351.705,204.8 375.638,226.744 379.743,253.716L382.633,273.942L207.918,273.942ZM388.729,316.61L390.933,332.038C391.339,334.868 390.023,337.684 387.592,339.189L355.531,359.05L340.581,463.883C338.856,477.081 327.646,487.488 315.072,487.488L275.479,487.488C262.906,487.488 251.696,477.081 249.959,463.801L235.019,359.05L202.959,339.191C200.528,337.685 199.213,334.87 199.618,332.039L201.822,316.61L388.729,316.61Z" style="fill:rgb(60,79,225);fill-rule:nonzero;"/>
            </g>
        </g>
        <g transform="matrix(0.861657,0,0,0.861657,40.0546,48.0388)">
            <g transform="matrix(1,0,0,1,40.198,30.9318)">
                <path d="M85.333,234.667L168.643,234.667L162.547,277.333L85.333,277.333C73.63,277.333 64,267.703 64,256C64,244.297 73.63,234.667 85.333,234.667ZM448,256C448,267.703 438.37,277.333 426.667,277.333L349.453,277.333L343.359,234.667L426.667,234.667C438.37,234.667 448,244.297 448,256Z" style="fill:rgb(60,79,225);fill-rule:nonzero;"/>
            </g>
            <g transform="matrix(1.11782,0,0,1.11782,-33.8935,-43.1597)">
                <path d="M104.452,177.656C95.703,177.656 88.502,170.456 88.502,161.707L88.502,142.621C88.502,112.933 112.933,88.502 142.621,88.502L161.707,88.502C170.456,88.502 177.656,95.703 177.656,104.452C177.656,113.202 170.456,120.401 161.707,120.401L142.621,120.401C130.432,120.401 120.401,130.432 120.401,142.621L120.401,161.707C120.401,170.456 113.202,177.656 104.452,177.656ZM486.148,177.656C477.398,177.656 470.199,170.456 470.199,161.707L470.199,142.621C470.199,130.432 460.168,120.401 447.979,120.401L428.893,120.401C420.144,120.401 412.944,113.202 412.944,104.452C412.944,95.703 420.144,88.502 428.893,88.502L447.979,88.502C477.667,88.502 502.098,112.933 502.098,142.621L502.098,161.707C502.098,170.456 494.897,177.656 486.148,177.656ZM161.707,502.098L142.621,502.098C112.933,502.098 88.502,477.667 88.502,447.979L88.502,428.893C88.502,420.144 95.703,412.944 104.452,412.944C113.202,412.944 120.401,420.144 120.401,428.893L120.401,447.979C120.401,460.168 130.432,470.199 142.621,470.199L161.707,470.199C170.456,470.199 177.656,477.398 177.656,486.148C177.656,494.897 170.456,502.098 161.707,502.098ZM447.979,502.098L428.893,502.098C420.144,502.098 412.944,494.897 412.944,486.148C412.944,477.398 420.144,470.199 428.893,470.199L447.979,470.199C460.168,470.199 470.199,460.168 470.199,447.979L470.199,428.893C470.199,420.144 477.398,412.944 486.148,412.944C494.897,412.944 502.098,420.144 502.098,428.893L502.098,447.979C502.098,477.667 477.667,502.098 447.979,502.098Z" style="fill:rgb(60,79,225);fill-rule:nonzero;"/>
            </g>
        </g>
    </g>
</svg>
